<svg width="21" height="18" viewBox="0 0 21 18" fill="none" xmlns="http://www.w3.org/2000/svg">
<path d="M20.4285 5.71004C20.4285 7.13004 19.8785 8.46004 18.8785 9.46004L11.0285 17.31C10.9885 17.35 10.8785 17.44 10.8285 17.47C10.7085 17.55 10.5685 17.59 10.4285 17.59C10.2885 17.59 10.1385 17.55 10.0185 17.47C9.95846 17.43 9.90847 17.39 9.84846 17.33L1.98846 9.46004C0.978464 8.46004 0.428467 7.13004 0.428467 5.71004C0.428467 4.29004 0.978464 2.96004 1.98846 1.96004C4.05846 -0.0999609 7.41846 -0.0999609 9.48846 1.96004L10.4285 2.91004L11.3785 1.96004C13.4485 -0.0999609 16.8085 -0.0999609 18.8685 1.96004C19.8785 2.96004 20.4285 4.29004 20.4285 5.71004Z" fill="#F34545"/>
</svg>
